<svg xmlns="http://www.w3.org/2000/svg" width="16" height="16" viewBox="0 0 16 16"><g transform="scale(.25)"><circle cx="32" cy="32" r="32" fill="#e0e7ff"/><g fill-rule="evenodd" clip-rule="evenodd"><path fill="#476cef" d="M33.45 51.54c1.47.3 2.2.45 2.77-.02s.57-1.27.57-2.88V30.3c0-1.47 0-2.2-.45-2.67-.46-.45-1.2-.45-2.67-.45H15.03c-1.63 0-2.45 0-2.92.58s-.3 1.32.02 2.8a27.4 27.4 0 0 0 7.4 13.48 27.4 27.4 0 0 0 13.92 7.5"/><path fill="#94abff" d="M47.9 37.53c0 1.6 0 2.42-.57 2.88-.57.47-1.3.32-2.77.02a27.4 27.4 0 0 1-13.91-7.5 27.4 27.4 0 0 1-7.4-13.47c-.33-1.48-.5-2.22-.03-2.8s1.29-.58 2.92-.58h18.64c1.48 0 2.21 0 2.67.45s.45 1.2.45 2.67z"/><path fill="#234cda" d="M36.8 37.57v-7.26c0-1.47 0-2.2-.46-2.67s-1.2-.45-2.67-.45h-7.43a27.5 27.5 0 0 0 10.55 10.38"/></g></g></svg>