<svg xmlns="http://www.w3.org/2000/svg" width="16" height="16" viewBox="0 0 16 16"><path fill="#0246cc" d="M16 3a3 3 0 0 0-3-3H3a3 3 0 0 0-3 3v10a3 3 0 0 0 3 3h10a3 3 0 0 0 3-3z"/><path fill="#287eff" d="M2.77 9.8v1.77c0 .58 2.03 1.43 5.2 1.43s5.19-.85 5.19-1.43V9.79c-1.07.7-3.14 1.06-5.2 1.06-2.05 0-4.12-.36-5.19-1.06"/><path fill="#96c0ff" d="M2.8 6.56v1.98c0 .58 2.02 1.43 5.19 1.43s5.19-.85 5.19-1.43V6.56c-1 .76-2.9 1.26-5.2 1.26-2.28 0-4.19-.5-5.18-1.26"/><g stroke="#fff"><path stroke-linecap="round" stroke-width=".77" d="M8.5 3 7.47 6.87"/><path fill="#fff" stroke-width=".22" d="M5.86 6.1h.01l.11.02a.2.2 0 0 0 .15-.07q.07-.08.06-.17v-.07a.3.3 0 0 0-.05-.16.3.3 0 0 0-.13-.1l-1.5-.62 1.5-.61a.3.3 0 0 0 .18-.27v-.07a.2.2 0 0 0-.06-.17.2.2 0 0 0-.15-.06q-.06 0-.1.02h-.01l-2.01.85a.3.3 0 0 0-.14.1.3.3 0 0 0-.05.17v.08q0 .1.05.17t.14.1zm4.25 0-.11.02a.2.2 0 0 1-.16-.07.2.2 0 0 1-.06-.17v-.07q0-.09.05-.16a.3.3 0 0 1 .13-.1l1.5-.62-1.49-.61a.3.3 0 0 1-.19-.27v-.07q0-.1.06-.17a.2.2 0 0 1 .16-.06l.1.02h.01l2 .85q.09.03.15.1t.05.17v.08q0 .1-.05.17a.3.3 0 0 1-.14.1z"/></g></svg>