<svg xmlns="http://www.w3.org/2000/svg" width="16" height="16" viewBox="0 0 16 16"><path stroke="#222" stroke-linecap="round" stroke-opacity=".9" stroke-width=".26" d="M6.35 3.39 4.47 7.58m1.88-4.19 3.23 4.5m-5.11-.31-3.1 4.3m3.1-4.3.04 4.76M9.58 7.9l-1.63 4.53M9.58 7.9l1.72 4.3M9.58 7.9l5.04 4.47"/><path fill="#00f" fill-rule="evenodd" d="M5.46 2.7c-.72.86.14 2.12 1.17 1.72.46-.17.83-.65.83-1.05 0-1-1.35-1.46-2-.68M4.22 6.72c-1.02.58-1.2 1.78-.34 2.3.82.51 1.97-.9 1.58-1.93-.25-.66-.55-.75-1.24-.37m4.28.95c0 1.33.9 1.83 1.84 1.04.58-.48.62-.8.18-1.34-.86-1.03-2.02-.86-2.02.3M1.24 11.2c-1.15.44-1.57 1.32-.97 2.04.8.97 2 .23 1.88-1.17-.05-.69-.1-1.23-.11-1.2-.01.02-.37.17-.8.33m2.61.38c-.6.72-.59.97.07 1.63s.87.67 1.37.06c.46-.54.44-.94-.07-1.63-.61-.84-.72-.85-1.37-.06m6.57.27c-.33 1.3.77 2.3 1.62 1.45s.76-1.32-.37-1.93c-.79-.42-1.03-.32-1.25.48m-3.12-.17c-.73.73-.32 1.73.72 1.73q1.08 0 .9-.86c-.18-.95-1.06-1.43-1.62-.87m6.38.64c0 1.16 1.2 1.76 1.97 1s.17-1.98-.98-1.98c-.62 0-.99.36-.99.98"/></svg>
