<svg xmlns="http://www.w3.org/2000/svg" width="16" height="16" viewBox="0 0 16 16"><defs><clipPath id="a"><path d="M0 560h960V0H0z"/></clipPath></defs><path fill="#800" d="m6.74 10.3-.65-1v1.79h1.25l.04-.05V9.3z"/><g fill="#800" clip-path="url(#a)" transform="matrix(.02685 0 0 -.02685 -5.08 16.89)"><path d="M662.11 391.9c-9.07-.68-18.15-1.38-27.24-1.43-5.6-.03-11.28.7-16.77 1.84-6.93 1.44-12.75 4.88-16.18 11.58-.51 1-2.22 1.57-3.49 1.95-4.46 1.32-8.98 2.48-13.5 4.15 1.58.12 3.15.34 4.71.33 3.85-.04 7.74.14 11.53-.37 6.92-.93 13.78-2.28 20.67-3.47 3.92-.68 7.87-1.3 11.76-2.14 7.38-1.58 14.74-3.3 22.1-4.98q7.3-1.69 14.58-3.45m-6.4-53.17c-11.3-3.49-22.74-6.62-33.86-10.63-6.96-2.51-13.5-6.23-20.12-9.63-5.77-2.96-7.81-8-7.1-14.28.45-4.03 1-8.04 1.37-12.13a44 44 0 0 0-6.43 14.22 83 83 0 0 0-.74 3.2c-.87 4.18 1.45 6.79 4.48 9.05a68 68 0 0 0 19.3 10.2c8.69 2.9 17.41 5.78 26.28 8.07 6.24 1.6 12.74 2.22 19.12 3.3 1.18.2 2.34.52 3.5.78l.13-.48c-1.98-.55-3.97-1.07-5.93-1.67m-159.45 44.74-.56-.54a49 49 0 0 1-16.51 8l-.5-.49 15.71-18.4-10.32 3.38-.43-.5c4.06-6.7 9.35-12.52 14.4-19.23a150 150 0 0 0-23.73 16.6c-9.92 8.48-18.57 18.04-25.05 29.44-2.67 4.69-5.03 9.55-5.53 15.04-.11 1.22-.01 2.52.27 3.72.47 1.94 2.31 2.84 4.2 2.25 10.4-3.23 20.63-6.9 30.2-12.21a97 97 0 0 0 24.3-18.77c.28-.3.5-.68.88-1.24l-16 7.3-.53-.66zm-315.37-55.31c-.13-.36.28-.7.41-1.05 2.16.45 4.3 1.04 6.47 1.34l1.7.22a126 126 0 0 0 24.77 6.3c12.01 1.7 24.46 3.94 36.72 3.88 11.65-.06 23.43-1.84 34.83-3.81a93 93 0 0 0 9.43-2.16 72 72 0 0 0 23.18-9.7l1.5-.77a74 74 0 0 0 25.77-20.13c1.27-1.4 3.49-2.88 4.63-4.42 2.4-2.82 3.53-5.84 7.53-9V336h49.88l23.33-43.03L462.6 336H514v-83.35l8.51 5.61s9.33 24.8 52.56 28.3l49.54 1.6c-7.64 15.81-7.61 15.81-3.93 20.58 3.65 4.73 31.8 7.82 36.75 10.78l72.3 14.58c.16.56.36-.3.73-.18 1.8.57 3.66.93 6.23 1.53l16.35 3.98c1.07.6 2.33.84 3.5 1.24 7.65 2.65 14.33 6.07 18.02 14.2 3.6 7.94 8.42 15.3 10.17 24.03.55 2.76.08 5.15-1.91 7.14-2.41 2.4-5.52 3.43-8.72 4.26-10.44 4.28-20.85 8.67-31.38 12.74-6.47 2.5-13.11 4.59-19.72 6.71a761 761 0 0 1-19.71 6.02c-6.08 1.78-12.19 3.43-18.29 5.1-5.95 1.62-11.9 3.3-17.9 4.76-6.97 1.72-14 3.25-21.01 4.85-5.33 1.22-10.63 2.52-15.98 3.6-5.82 1.2-11.69 2.21-17.54 3.24-7.48 1.32-14.95 2.78-22.47 3.8-9.08 1.24-18.22 2.04-27.33 3.1a237 237 0 0 1-45.84 1.12c-5.42-.41-10.77-1.79-16.15-2.72 5.7-2.93 11.34-5.3 16.9-7.84a73 73 0 0 0 15.6-9.6c-6.26 2.4-12.36 5.17-18.65 7.41-13.12 4.68-26.47 8.57-40.33 10.45-6.78.92-13.55 1.8-20.32-.11-6.87-1.94-8.81-4.5-9.43-11.38-1.03-11.42 2.4-22.02 6.97-32.23a110 110 0 0 1 29.41-39.06 113 113 0 0 1 32.4-19.53c3.4-1.33 6.82-2.58 10.22-3.87l-.23-.79c-6.53 1.79-13.22 3.13-19.54 5.47-11.19 4.13-21.19 10.44-30.33 18.11-10.22 8.56-18.7 18.57-25.01 30.29-6.7 12.44-10.53 25.73-10.66 39.96"/><path d="M189.03 331.67s115.97 112 248.5 98.1"/></g></svg>