<svg xmlns="http://www.w3.org/2000/svg" width="16" height="16" shape-rendering="crispEdges" viewBox="0 0 16 16"><path fill="#989898" d="M5.71.57h1.15v1.14H5.7zM4.57 2.86h1.14V4H4.57zM3.43 4h1.14v1.14H3.43zm0 1.14h1.14V6.3H3.43zM0 6.29h1.14v1.14H0zm10.29 0h1.14v1.14h-1.14zm0 1.14h1.14v1.14h-1.14zm0 1.14h1.14v1.14h-1.14zm0 1.14h1.14v1.15h-1.14zm-1.15 1.15h1.15V12H9.14z"/><path fill="#666" d="M6.86.57h5.71v1.14H6.86zM5.71 1.71h1.15v1.15H5.7zm5.72 0h1.14v1.15h-1.14zM5.71 2.86h1.15V4H5.7zm5.72 0h1.14V4h-1.14zM5.71 4h5.72v1.14H5.7zM1.14 6.29h5.72v1.14H1.14zM0 7.43h1.14v1.14H0zm5.71 0h1.15v1.14H5.7zM0 8.57h1.14v1.14H0zm5.71 0h1.15v1.14H5.7zM0 9.71h5.71v1.15H0zm10.29 1.15H16V12h-5.7zM9.14 12h1.15v1.14H9.14zm5.72 0H16v1.14h-1.14zm-5.72 1.14h1.15v1.15H9.14zm5.72 0H16v1.15h-1.14zm-5.72 1.15h5.72v1.14H9.14z"/><path fill="#fff" d="M6.86 1.71h4.57v1.15H6.86zm0 1.15h4.57V4H6.86zM1.14 7.43h4.57v1.14H1.14zm0 1.14h4.57v1.14H1.14zM10.29 12h4.57v1.14h-4.57zm0 1.14h4.57v1.15h-4.57z"/><path fill="#a6a6a6" d="M3.43 2.86h1.14V4H3.43z"/><path fill="#434343" d="M11.43 4h1.14v1.14h-1.14zM5.71 9.71h1.15v1.15H5.7zm9.15 4.58H16v1.14h-1.14z"/><path fill="#7a7a7a" d="M10.29 5.14h1.14V6.3h-1.14z"/></svg>
