<svg xmlns="http://www.w3.org/2000/svg" width="16" height="16" viewBox="188.68 266 16 16"><defs><linearGradient id="d" x1="-750.5" x2="-729.5" y1="319.06" y2="319.06" gradientTransform="translate(1104.2 304.47)" gradientUnits="userSpaceOnUse"><stop offset="0" stop-color="gray"/><stop offset="1" stop-color="gray" stop-opacity="0"/></linearGradient><linearGradient id="f" x1="-621.5" x2="-600.5" y1="348.3" y2="348.3" gradientTransform="translate(1075.2 275.22)" gradientUnits="userSpaceOnUse"><stop offset="0" stop-color="gray"/><stop offset="1" stop-color="gray" stop-opacity="0"/></linearGradient><linearGradient id="e" x1="-521.5" x2="-500.5" y1="348.3" y2="348.3" gradientTransform="translate(1075.2 275.22)" gradientUnits="userSpaceOnUse"><stop offset="0" stop-color="gray"/><stop offset="1" stop-color="gray" stop-opacity="0"/></linearGradient><linearGradient id="b" x1="-560.5" x2="-474.5" y1="114.1" y2="114.1" gradientTransform="translate(1104.2 304.47)" gradientUnits="userSpaceOnUse"><stop offset="0" stop-color="gray"/><stop offset="1" stop-color="gray" stop-opacity="0"/></linearGradient><linearGradient id="c" x1="188.68" x2="304.68" y1="603.53" y2="603.53" gradientUnits="userSpaceOnUse"><stop offset="0" stop-color="#0074bd"/><stop offset="1" stop-color="#0074bd" stop-opacity="0"/></linearGradient><linearGradient id="a" x1="543.68" x2="594.68" y1="488.42" y2="488.42" gradientUnits="userSpaceOnUse"><stop offset="0" stop-color="#0074bd"/><stop offset="1" stop-color="#0074bd" stop-opacity="0"/></linearGradient></defs><g stroke="#000"><path fill="#16003a" stroke-width=".04" d="m199.08 275 4.12 2.51-3.22 1.79-4.11-2.5z"/><path fill="#ffba39" stroke-width=".04" d="m195.5 275 4.12 2.51-3.22 1.79-4.1-2.5z"/><path fill="#991039" stroke-width=".04" d="m191.93 275 4.12 2.51-3.22 1.79-4.12-2.5z"/><path fill="url(#a)" d="m594 563.3-49.82-29.78v-120l50 30z" transform="translate(181.95 257.36)scale(.03576)"/><path fill="url(#b)" d="m594.18 443.63 35-20.1-50-30-35 20z" transform="translate(181.95 257.36)scale(.03576)"/><path fill="url(#c)" d="m189.18 543.53 115 70v50l-115-70z" transform="translate(181.95 257.36)scale(.03576)"/><path fill="#fff" stroke-width=".04" d="M192.83 281.09v-1.8l3.22-1.78.35 1.79 3.22-1.79.36 1.79 3.22-1.79v-4.29l1.25-.71v8.58z"/></g><path fill="#ea2d2e" fill-rule="evenodd" d="M203.35 270.43c.36.41-.1.79-.1.79s.92-.47.5-1.06c-.4-.55-.7-.83.93-1.77 0 0-2.55.64-1.33 2.04" clip-rule="evenodd"/><path fill="#ea2d2e" fill-rule="evenodd" d="M203.75 266.87s.77.78-.74 1.97c-1.2.95-.27 1.5 0 2.12-.7-.64-1.22-1.2-.87-1.72.5-.77 1.92-1.14 1.6-2.37" clip-rule="evenodd"/><g stroke="#000" transform="translate(181.95 257.36)scale(.03576)"><rect width="20" height="20" x="354.18" y="613.53" fill="url(#d)" ry="5"/><rect width="20" height="20" x="554.18" y="613.53" fill="url(#e)" ry="5"/><rect width="20" height="20" x="454.18" y="613.53" fill="url(#f)" ry="5"/></g></svg>