<svg xmlns="http://www.w3.org/2000/svg" width="16" height="16" viewBox="0 0 16 16"><g fill-rule="evenodd" stroke-width=".15"><path fill="#52b0e7" d="m8 2.32 4.95 2.82 1.99-1.15-6.92-4-6.96 4 1.99 1.15z"/><path fill="#3c76c3" d="m1.1 4.01 2 1.16v5.72L8 13.72v2.27L1.06 12z"/><path fill="#2e9d4d" d="M6.08 6.89 8.01 8v2.27l-1-.58-.93-.53z"/><path fill="#256f44" d="M9.97 6.87 8.01 8v2.27l1.93-1.11z"/><path fill="#2e3b69" d="m14.9 4.01-2 1.16v5.65l-2.4 1.45L8 13.72v2.27h.02l6.89-3.97z"/><path fill="#9fd62b" d="M8 8 6.09 6.9v-.01l1.93-1.12.02-.01.98.56.96.56z"/><path fill="#3c76c3" d="m3.63 8.25 1.93 1.11v2.27l-1-.58-.93-.53z"/><path fill="#2e3b69" d="M7.49 8.25 5.56 9.36v2.27l1.93-1.11z"/><path fill="#52b0e7" d="m5.56 9.36-1.93-1.1.97-.59.96-.55 1.93 1.13z"/><path fill="#3c76c3" d="m8.6 8.31 1.92 1.11v2.27l-1-.58-.93-.53z"/><path fill="#2e3b69" d="m12.45 8.31-1.93 1.11v2.27l1.93-1.11z"/><path fill="#52b0e7" d="M10.52 9.42 8.59 8.31v-.02l.98-.56.95-.55 1.93 1.13z"/><path fill="#3c76c3" d="m6.16 9.74 1.93 1.11v2.27l-1-.58-.93-.53z"/><path fill="#2e3b69" d="m10.02 9.74-1.93 1.11v2.27l1.93-1.11z"/><path fill="#52b0e7" d="M8.09 10.85 6.16 9.74v-.01l.98-.57.95-.55 1.93 1.13z"/><path fill="#3c76c3" d="m6.08 3.85 1.93 1.12v2.27l-1-.58-.93-.54z"/><path fill="#2e3b69" d="M9.97 3.83 8.01 4.97v2.27l1.93-1.12z"/><path fill="#52b0e7" d="M8 4.97 6.09 3.86v-.02l1.93-1.11.02-.02.98.57.96.56z"/><path fill="#3c76c3" d="m3.63 5.22 1.93 1.1V8.6l-1-.58-.93-.54z"/><path fill="#2e3b69" d="m7.49 5.22-1.93 1.1V8.6l1.93-1.12z"/><path fill="#52b0e7" d="M5.56 6.33 3.63 5.22l.97-.58.96-.55 1.93 1.13z"/><path fill="#3c76c3" d="m8.6 5.28 1.92 1.1v2.28l-1-.58-.93-.54z"/><path fill="#2e3b69" d="m12.45 5.28-1.93 1.1v2.28l1.93-1.12z"/><path fill="#52b0e7" d="M10.52 6.4 8.59 5.27v-.02l.98-.56.95-.55 1.93 1.13z"/><path fill="#3c76c3" d="m6.16 6.7 1.93 1.12v2.27l-1-.58-.93-.53z"/><path fill="#2e3b69" d="M10.02 6.7 8.09 7.83v2.27l1.93-1.11z"/><path fill="#52b0e7" d="M8.09 7.82 6.16 6.71v-.02l.98-.56.95-.55 1.93 1.13z"/></g></svg>